<?xml version="1.0"?>
<svg xmlns="http://www.w3.org/2000/svg" xmlns:xlink="http://www.w3.org/1999/xlink" viewBox="0 0 512 512" width="512" height="512"><linearGradient id="a" gradientUnits="userSpaceOnUse" x1="177.5" x2="177.5" y1="22" y2="498"><stop offset="0" stop-color="#00efd1"/><stop offset="1" stop-color="#00acea"/></linearGradient><linearGradient id="b" x1="256.5" x2="256.5" xlink:href="#a" y1="22" y2="498"/><linearGradient id="c" x1="99.5" x2="99.5" xlink:href="#a" y1="22" y2="498"/><linearGradient id="d" x1="334.5" x2="334.5" xlink:href="#a" y1="22" y2="498"/><linearGradient id="e" x1="413.5" x2="413.5" xlink:href="#a" y1="22" y2="498"/><linearGradient id="f" x1="256" x2="256" xlink:href="#a" y1="22" y2="498"/><path d="m197 297h-39a10 10 0 0 0 -10 10v157a10 10 0 0 0 10 10h39a10 10 0 0 0 10-10v-157a10 10 0 0 0 -10-10zm-10 157h-19v-137h19z" fill="url(#a)"/><path d="m276 274h-39a10 10 0 0 0 -10 10v181a10 10 0 0 0 10 10h39a10 10 0 0 0 10-10v-181a10 10 0 0 0 -10-10zm-10 180h-19v-160h19z" fill="url(#b)"/><path d="m119 383h-39a10 10 0 0 0 -10 10v71a10 10 0 0 0 10 10h39a10 10 0 0 0 10-10v-71a10 10 0 0 0 -10-10zm-11 71h-18v-51h18z" fill="url(#c)"/><path d="m354 216h-39a10 10 0 0 0 -10 10v238a10 10 0 0 0 10 10h39a10 10 0 0 0 10-10v-238a10 10 0 0 0 -10-10zm-10 238h-19v-218h19z" fill="url(#d)"/><path d="m433 164h-39a10 10 0 0 0 -10 10v290a10 10 0 0 0 10 10h39a10 10 0 0 0 10-10v-290a10 10 0 0 0 -10-10zm-11 290h-18v-270h18z" fill="url(#e)"/><path d="m440.725 38h-.015l-68.438.014a9.993 9.993 0 0 0 .015 19.986h.015l44.243-.1-108.261 108.237-37.859-38.054a10.147 10.147 0 0 0 -7.072-3.083 10.145 10.145 0 0 0 -7.072 3.07l-192.081 192.145a10.022 10.022 0 1 0 14.142 14.2l185-184.995 37.863 37.78a9.879 9.879 0 0 0 7.072 2.8 9.877 9.877 0 0 0 7.071-2.8l115.34-115.268-.067 44.148a9.914 9.914 0 0 0 9.985 9.92h.016a9.891 9.891 0 0 0 10-9.856l.1-68.373a9.721 9.721 0 0 0 -2.929-6.965 9.888 9.888 0 0 0 -7.068-2.806z" fill="url(#f)"/></svg>
